<svg xmlns="http://www.w3.org/2000/svg" viewBox="0 0 512 512" fill="none" color="#fff">
  <defs>
    <symbol id="agent" viewBox="0 0 512 512">
      <g transform="translate(0 512) scale(.1 -.1)" fill="currentColor" stroke="none">
        <path d="M658 4652c-1-4-25-20-51-36-100-58-137-179-86-283 23-47 49-68 206-161 392-232 684-603 821-1042 140-452 92-997-123-1398-107-198-220-347-377-498-118-113-207-177-434-313-79-47-114-105-114-186 0-145 107-233 255-211 64 10 113 57 183 175 100 171 157 247 304 402 215 229 586 439 880 498 29 6 89 19 133 28 137 31 492 25 663-10 327-67 604-201 842-405 164-141 337-354 430-528 66-125 136-171 247-162 105 9 175 87 181 203 6 108-23 143-205 254-262 159-447 331-603 561-61 91-180 308-180 329 0 7-7 27-15 44-48 105-98 314-116 487-43 425 67 863 307 1217 168 248 346 412 633 584 148 89 173 118 179 215 5 73-20 139-66 174-103 79-139 86-225 39-68-36-79-50-170-204-285-483-766-807-1332-897-120-18-438-16-560 5-542 94-1022 416-1284 862-100 170-122 197-185 232-55 31-129 45-138 25z" />
      </g>
    </symbol>
  </defs>
  <rect x="40" y="40" width="432" height="432" rx="120" stroke="currentColor" stroke-width="34" />
  <use href="#agent" x="128" y="128" width="256" height="256" />
  <use href="#agent" x="72" y="72" width="112" height="112" />
  <use href="#agent" x="328" y="328" width="112" height="112" />
</svg>
